<svg xmlns="http://www.w3.org/2000/svg" width="792" height="612" viewBox="0 0 792 612"><path d="M-154.465-1912.333h-781.256c-54.188 0-97.538-43.35-97.538-97.538v-715.594c0-54.188 36.656-97.537 81.281-97.537h48.769v65.025h-48.769c-5.419 0-16.256 12.75-16.256 32.513v715.594c0 18.168 14.344 32.512 32.513 32.512h781.256c18.169 0 32.513-14.344 32.513-32.512v-715.594c0-19.444-10.519-32.513-16.256-32.513h-48.77v-65.025h48.77c45.262 0 81.281 43.35 81.281 97.537v715.594c0 53.231-44.306 97.538-97.538 97.538"/><path d="M-805.033-2693.59c-18.169 0-32.513-14.344-32.513-32.512v-130.05c0-18.168 14.344-32.512 32.513-32.512s32.513 14.344 32.513 32.512v130.05c-.32 18.487-14.982 32.512-32.513 32.512m519.881 0c-18.168 0-32.512-14.344-32.512-32.512v-130.05c0-18.168 14.344-32.512 32.512-32.512 18.169 0 32.513 14.344 32.513 32.512v130.05c.637 18.487-14.344 32.512-32.513 32.512m-422.344-129.731h325.444v65.025h-325.444v-65.025zm-260.419 195.075h845.325v65.025h-845.325v-65.025zm715.913 129.731h65.024v65.025h-65.024v-65.025z"/><path fill="#328941" d="M-382.689-2498.515h65.025v65.025h-65.025v-65.025z"/><path d="M-512.421-2498.515h65.025v65.025h-65.025v-65.025zm-130.687 0h65.025v65.025h-65.025v-65.025zm-129.732 0h65.025v65.025h-65.025v-65.025zm520.838 130.688h65.024v65.025h-65.024v-65.025zm-130.687 0h65.025v65.025h-65.025v-65.025zm-129.732 0h65.025v65.025h-65.025v-65.025z"/><path fill="#328941" d="M-643.108-2367.827h65.025v65.025h-65.025v-65.025z"/><path d="M-772.84-2367.827h65.025v65.025h-65.025v-65.025zm-130.368 0h65.024v65.025h-65.024v-65.025zm651.206 129.731h65.024v65.025h-65.024v-65.025zm-130.687 0h65.025v65.025h-65.025v-65.025zm-129.732 0h65.025v65.025h-65.025v-65.025zm-130.687 0h65.025v65.025h-65.025v-65.025zm-129.732 0h65.025v65.025h-65.025v-65.025zm-130.368 0h65.024v65.025h-65.024v-65.025zm520.519 130.688h65.025v65.025h-65.025v-65.025z"/><path fill="#328941" d="M-512.421-2107.408h65.025v65.025h-65.025v-65.025z"/><path d="M-643.108-2107.408h65.025v65.025h-65.025v-65.025zm-129.732 0h65.025v65.025h-65.025v-65.025zm-130.368 0h65.024v65.025h-65.024v-65.025z"/><path fill="none" d="M589.873 244.08h40.451v40.45h-40.451v-40.45zm0 82.165h40.451v40.451h-40.451v-40.451zm0 80.902h40.451v40.45h-40.451v-40.45zM508.655 244.08h40.451v40.45h-40.451v-40.45zm0 82.165h40.451v40.451h-40.451v-40.451zm0 80.902h40.451v40.45h-40.451v-40.45zm0 81.534h40.451v40.451h-40.451v-40.451zM427.438 244.08h40.45v40.45h-40.45v-40.45zm0 82.165h40.45v40.451h-40.45v-40.451zm0 80.902h40.45v40.45h-40.45v-40.45zm0 81.534h40.45v40.451h-40.45v-40.451zM346.22 244.08h40.135v40.45h-40.451v-40.45h.316zm0 82.165h40.135v40.451h-40.451v-40.451h.316zm0 80.902h40.135v40.45h-40.451v-40.45h.316zm0 81.534h40.135v40.451h-40.451v-40.451h.316zM265.319 244.08h40.451v40.45h-40.451v-40.45zm0 82.165h40.451v40.451h-40.451v-40.451zm0 80.902h40.451v40.45h-40.451v-40.45zm0 81.534h40.451v40.451h-40.451v-40.451zm-81.533-162.436h40.45v40.451h-40.45v-40.451zm0 80.902h40.45v40.45h-40.45v-40.45zm0 81.534h40.45v40.451h-40.45v-40.451z"/><g stroke="#000" stroke-width="20" stroke-miterlimit="10"><path d="M660.029 56.047h-15.801v11.377h15.801c13.905 0 24.649 15.801 24.649 35.078V177.4H128.166v-74.897c0-18.646 11.376-35.078 24.649-35.078h15.801V56.047h-15.801c-19.909 0-36.342 21.173-36.342 46.455v445.59c0 25.281 21.174 46.455 46.456 46.455h487.305c12.009 0 24.334-5.372 33.182-14.537 8.533-8.532 12.957-19.909 12.009-31.286V102.187c.314-24.65-15.487-46.14-35.396-46.14zm24.65 493.626c0 19.277-14.853 35.078-35.078 35.078H162.928c-19.277 0-35.078-14.853-35.078-35.078V188.46l556.513.948v360.264h.316z"/><path d="M244.461 110.087c4.424 0 7.268-2.844 7.268-7.9V21.285c0-4.424-2.844-7.269-7.268-7.269-4.424 0-7.269 3.477-7.269 7.269v81.217c.317 4.109 3.477 7.585 7.269 7.585z"/><path d="M237.51 21.285c0-4.424 3.476-7.269 7.268-7.269 4.424 0 7.269 2.844 7.269 7.269v80.902c0 5.056-2.845 7.9-7.269 7.9-4.425 0-7.268-2.844-7.268-7.269V21.285zm331.19 88.802c2.527 0 4.423-.632 5.372-2.529.948-.948 1.896-2.844 1.896-5.056V21.285c0-4.424-2.845-7.269-7.268-7.269-4.425 0-7.269 2.844-7.269 7.269v81.217c.316 4.109 3.161 7.585 7.269 7.585z"/><path d="M561.747 21.285c0-4.424 2.845-7.269 7.269-7.269 4.425 0 7.269 2.844 7.269 7.269v81.217c0 1.896-.633 3.476-1.896 5.056-.947 1.58-3.476 2.529-5.372 2.529-4.425 0-7.269-2.844-7.269-7.269V21.285h-.001zM320.938 56.047H494.75v11.377H320.938V56.047z"/><path d="M320.938 56.047H494.75v11.377H320.938V56.047z"/></g><path d="M589.873 244.08h40.451v40.45h-40.451v-40.45zm-81.218 0h40.451v40.45h-40.451v-40.45zm-81.217 0h40.45v40.45h-40.45v-40.45zm-81.218 0h40.451v40.45H346.22v-40.45zm-80.901 0h40.451v40.45h-40.451v-40.45zm324.554 82.165h40.451v40.451h-40.451v-40.451zm-81.218 0h40.451v40.451h-40.451v-40.451zm-81.217 0h40.45v40.451h-40.45v-40.451zm-81.218 0h40.451v40.451H346.22v-40.451zm-80.901 0h40.451v40.451h-40.451v-40.451zm-81.533 0h40.45v40.451h-40.45v-40.451zm406.087 80.902h40.451v40.45h-40.451v-40.45zm-81.218 0h40.451v40.45h-40.451v-40.45zm-81.217 0h40.45v40.45h-40.45v-40.45zm-81.218 0h40.451v40.45H346.22v-40.45zm-80.901 0h40.451v40.45h-40.451v-40.45zm-81.533 0h40.45v40.45h-40.45v-40.45zm324.869 81.534h40.451v40.451h-40.451v-40.451zm-81.217 0h40.45v40.451h-40.45v-40.451zm-81.218 0h40.451v40.451H346.22v-40.451zm-80.901 0h40.451v40.451h-40.451v-40.451zm-81.533 0h40.45v40.451h-40.45v-40.451z"/></svg>