<?xml version="1.0" encoding="utf-8"?>
<!-- Generator: Adobe Illustrator 18.1.1, SVG Export Plug-In . SVG Version: 6.00 Build 0)  -->
<svg version="1.1" id="Layer_1" xmlns="http://www.w3.org/2000/svg" xmlns:xlink="http://www.w3.org/1999/xlink" x="0px" y="0px"
	 viewBox="657.1 287 189.1 192" enable-background="new 657.1 287 189.1 192" xml:space="preserve">
<g>
	<path fill="#767879" d="M574.6-314.6H329.5c-17,0-30.6-13.6-30.6-30.6v-224.5c0-17,11.5-30.6,25.5-30.6h15.3v20.4h-15.3
		c-1.7,0-5.1,4-5.1,10.2v224.5c0,5.7,4.5,10.2,10.2,10.2h245.1c5.7,0,10.2-4.5,10.2-10.2v-224.5c0-6.1-3.3-10.2-5.1-10.2h-15.3
		v-20.4h15.3c14.2,0,25.5,13.6,25.5,30.6v224.5C605.2-328.5,591.3-314.6,574.6-314.6"/>
	<path fill="#767879" d="M370.5-559.7c-5.7,0-10.2-4.5-10.2-10.2v-40.8c0-5.7,4.5-10.2,10.2-10.2c5.7,0,10.2,4.5,10.2,10.2v40.8
		C380.6-564.1,376-559.7,370.5-559.7"/>
	<path fill="#767879" d="M533.6-559.7c-5.7,0-10.2-4.5-10.2-10.2v-40.8c0-5.7,4.5-10.2,10.2-10.2s10.2,4.5,10.2,10.2v40.8
		C544-564.1,539.3-559.7,533.6-559.7"/>
	<rect x="401.1" y="-600.4" fill="#767879" width="102.1" height="20.4"/>
	<rect x="319.4" y="-539.2" fill="#767879" width="265.2" height="20.4"/>
	<rect x="544" y="-498.5" fill="#767879" width="20.4" height="20.4"/>
	<rect x="503" y="-498.5" fill="#328941" width="20.4" height="20.4"/>
	<rect x="462.3" y="-498.5" fill="#767879" width="20.4" height="20.4"/>
	<rect x="421.3" y="-498.5" fill="#767879" width="20.4" height="20.4"/>
	<rect x="380.6" y="-498.5" fill="#767879" width="20.4" height="20.4"/>
	<rect x="544" y="-457.5" fill="#767879" width="20.4" height="20.4"/>
	<rect x="503" y="-457.5" fill="#767879" width="20.4" height="20.4"/>
	<rect x="462.3" y="-457.5" fill="#767879" width="20.4" height="20.4"/>
	<rect x="421.3" y="-457.5" fill="#328941" width="20.4" height="20.4"/>
	<rect x="380.6" y="-457.5" fill="#767879" width="20.4" height="20.4"/>
	<rect x="339.7" y="-457.5" fill="#767879" width="20.4" height="20.4"/>
	<rect x="544" y="-416.8" fill="#767879" width="20.4" height="20.4"/>
	<rect x="503" y="-416.8" fill="#767879" width="20.4" height="20.4"/>
	<rect x="462.3" y="-416.8" fill="#767879" width="20.4" height="20.4"/>
	<rect x="421.3" y="-416.8" fill="#767879" width="20.4" height="20.4"/>
	<rect x="380.6" y="-416.8" fill="#767879" width="20.4" height="20.4"/>
	<rect x="339.7" y="-416.8" fill="#767879" width="20.4" height="20.4"/>
	<rect x="503" y="-375.8" fill="#767879" width="20.4" height="20.4"/>
	<rect x="462.3" y="-375.8" fill="#328941" width="20.4" height="20.4"/>
	<rect x="421.3" y="-375.8" fill="#767879" width="20.4" height="20.4"/>
	<rect x="380.6" y="-375.8" fill="#767879" width="20.4" height="20.4"/>
	<rect x="339.7" y="-375.8" fill="#767879" width="20.4" height="20.4"/>
</g>
<path fill="none" d="M809.4,363.8h12.8v12.8h-12.8V363.8z M809.4,389.8h12.8v12.8h-12.8V389.8z M809.4,415.4h12.8v12.8h-12.8V415.4z
	 M783.7,363.8h12.8v12.8h-12.8L783.7,363.8L783.7,363.8z M783.7,389.8h12.8v12.8h-12.8L783.7,389.8L783.7,389.8z M783.7,415.4h12.8
	v12.8h-12.8L783.7,415.4L783.7,415.4z M783.7,441.2h12.8v12.8h-12.8L783.7,441.2L783.7,441.2z M758,363.8h12.8v12.8H758V363.8z
	 M758,389.8h12.8v12.8H758V389.8z M758,415.4h12.8v12.8H758V415.4z M758,441.2h12.8v12.8H758V441.2z M732.3,363.8H745v12.8h-12.8
	V363.8z M732.3,389.8H745v12.8h-12.8V389.8z M732.3,415.4H745v12.8h-12.8V415.4z M732.3,441.2H745v12.8h-12.8V441.2z M706.7,363.8
	h12.8v12.8h-12.8V363.8z M706.7,389.8h12.8v12.8h-12.8V389.8z M706.7,415.4h12.8v12.8h-12.8V415.4z M706.7,441.2h12.8v12.8h-12.8
	V441.2z M680.9,389.8h12.8v12.8h-12.8V389.8z M680.9,415.4h12.8v12.8h-12.8V415.4z M680.9,441.2h12.8v12.8h-12.8V441.2z"/>
<g>
	<path fill="#767879" stroke="#767879" stroke-width="2" stroke-miterlimit="10" d="M831.6,304.3h-5v3.6h5c4.4,0,7.8,5,7.8,11.1
		v23.7H663.3V319c0-5.9,3.6-11.1,7.8-11.1h5v-3.6h-5c-6.3,0-11.5,6.7-11.5,14.7v141c0,8,6.7,14.7,14.7,14.7h154.2
		c3.8,0,7.7-1.7,10.5-4.6c2.7-2.7,4.1-6.3,3.8-9.9V318.9C842.9,311.1,837.9,304.3,831.6,304.3z M839.4,460.5
		c0,6.1-4.7,11.1-11.1,11.1h-154c-6.1,0-11.1-4.7-11.1-11.1V346.2l176.1,0.3V460.5z"/>
	<path fill="#767879" stroke="#767879" stroke-width="2" stroke-miterlimit="10" d="M700.1,321.4c1.4,0,2.3-0.9,2.3-2.5v-25.6
		c0-1.4-0.9-2.3-2.3-2.3s-2.3,1.1-2.3,2.3V319C697.9,320.3,698.9,321.4,700.1,321.4z"/>
	<path fill="#767879" stroke="#767879" stroke-width="2" stroke-miterlimit="10" d="M697.9,293.3c0-1.4,1.1-2.3,2.3-2.3
		c1.4,0,2.3,0.9,2.3,2.3v25.6c0,1.6-0.9,2.5-2.3,2.5s-2.3-0.9-2.3-2.3V293.3z"/>
	<path fill="#767879" stroke="#767879" stroke-width="2" stroke-miterlimit="10" d="M802.7,321.4c0.8,0,1.4-0.2,1.7-0.8
		c0.3-0.3,0.6-0.9,0.6-1.6v-25.7c0-1.4-0.9-2.3-2.3-2.3c-1.4,0-2.3,0.9-2.3,2.3V319C800.5,320.3,801.4,321.4,802.7,321.4z"/>
	<path fill="#767879" stroke="#767879" stroke-width="2" stroke-miterlimit="10" d="M800.5,293.3c0-1.4,0.9-2.3,2.3-2.3
		c1.4,0,2.3,0.9,2.3,2.3V319c0,0.6-0.2,1.1-0.6,1.6c-0.3,0.5-1.1,0.8-1.7,0.8c-1.4,0-2.3-0.9-2.3-2.3V293.3L800.5,293.3z"/>
	<rect x="724.3" y="304.3" fill="#767879" stroke="#767879" stroke-width="2" stroke-miterlimit="10" width="55" height="3.6"/>
	<path fill="#767879" stroke="#767879" stroke-width="2" stroke-miterlimit="10" d="M724.3,304.3h55v3.6h-55V304.3z"/>
</g>
<rect x="809.4" y="363.8" fill="#767879" width="12.8" height="12.8"/>
<rect x="783.7" y="363.8" fill="#767879" width="12.8" height="12.8"/>
<rect x="758" y="363.8" fill="#767879" width="12.8" height="12.8"/>
<rect x="732.3" y="363.8" fill="#767879" width="12.8" height="12.8"/>
<rect x="706.7" y="363.8" fill="#767879" width="12.8" height="12.8"/>
<rect x="809.4" y="389.8" fill="#767879" width="12.8" height="12.8"/>
<rect x="783.7" y="389.8" fill="#767879" width="12.8" height="12.8"/>
<rect x="758" y="389.8" fill="#767879" width="12.8" height="12.8"/>
<rect x="732.3" y="389.8" fill="#767879" width="12.8" height="12.8"/>
<rect x="706.7" y="389.8" fill="#767879" width="12.8" height="12.8"/>
<rect x="680.9" y="389.8" fill="#767879" width="12.8" height="12.8"/>
<rect x="809.4" y="415.4" fill="#767879" width="12.8" height="12.8"/>
<rect x="783.7" y="415.4" fill="#767879" width="12.8" height="12.8"/>
<rect x="758" y="415.4" fill="#767879" width="12.8" height="12.8"/>
<rect x="732.3" y="415.4" fill="#767879" width="12.8" height="12.8"/>
<rect x="706.7" y="415.4" fill="#767879" width="12.8" height="12.8"/>
<rect x="680.9" y="415.4" fill="#767879" width="12.8" height="12.8"/>
<rect x="783.7" y="441.2" fill="#767879" width="12.8" height="12.8"/>
<rect x="758" y="441.2" fill="#767879" width="12.8" height="12.8"/>
<rect x="732.3" y="441.2" fill="#767879" width="12.8" height="12.8"/>
<rect x="706.7" y="441.2" fill="#767879" width="12.8" height="12.8"/>
<rect x="680.9" y="441.2" fill="#767879" width="12.8" height="12.8"/>
</svg>
