<?xml version="1.0" encoding="utf-8"?>
<!-- Generator: Adobe Illustrator 18.1.1, SVG Export Plug-In . SVG Version: 6.00 Build 0)  -->
<svg version="1.1" id="Layer_1" xmlns="http://www.w3.org/2000/svg" xmlns:xlink="http://www.w3.org/1999/xlink" x="0px" y="0px"
	 viewBox="46 35.5 30.9 49.5" enable-background="new 46 35.5 30.9 49.5" xml:space="preserve">
<rect x="-8.2" y="-3.4" fill="#318333" width="143.3" height="138.5"/>
<g>
	
		<path fill="#F8F8F8" stroke="#F8F8F8" stroke-width="0.25" stroke-linecap="round" stroke-linejoin="round" stroke-miterlimit="10" d="
		M-55,84.1L-55,84.1l-13.4-0.4h0L-79,75.4v0l-3.7-12.8v0l4.6-12.6l11.1-7.5l13.4,0.4h0l10.5,8.2v0l3.7,12.8v0l-4.6,12.6h0L-55,84.1z
		 M-68.3,83.5L-55,84l11-7.5l4.5-12.5l-3.7-12.8L-53.7,43L-67,42.6l-11,7.5l-4.5,12.5l3.7,12.8L-68.3,83.5z"/>
</g>
<g>
	
		<path fill="#F8F8F8" stroke="#F8F8F8" stroke-width="0.25" stroke-linecap="round" stroke-linejoin="round" stroke-miterlimit="10" d="
		M-62.7,79.1L-62.7,79.1l-9.8-4.7v0l-5.1-9.5l1.4-10.7l0,0l7.4-7.8l10.6-2h0l9.8,4.7v0l5.1,9.5v0l-3.6,10.3l0,0l-5.3,8.2h0
		L-62.7,79.1z M-72.4,74.4l9.7,4.7l10.6-2l5.3-8.2l3.5-10.3l-5.1-9.5l-9.7-4.6l-10.6,2l-7.4,7.8L-77.5,65L-72.4,74.4z"/>
</g>
<g>
	
		<path fill="#F8F8F8" stroke="#F8F8F8" stroke-width="0.25" stroke-linecap="round" stroke-linejoin="round" stroke-miterlimit="10" d="
		M-55,84.1L-55,84.1l-7.7-5l-5.6,4.5l-0.1-0.1l5.7-4.5l7.6,4.9l1.4-7.5l-20.1-9.7l1.4,7.7l-6.6,1v0l0.3-10.9l-4.1-1.9l4.3-3.1
		l0.3-9.5l5.4-0.1l5.7-7.4l6.1,4.1l2.9-2.1l4.5-1.5l2.2,6.3l3.2-0.1l-0.2,1l5.4,1v0l-0.6,7.1l0.5,0.3v0l-0.1,3l3.9,2.3l0,0.1
		l-3.8-2.3L-44,76.7h0l-8.1,0.6l-1.4-0.7L-55,84.1z M-53.5,76.4l1.4,0.7l8-0.6l0.6-14.8l-0.5-0.3l-2.8,7.8l-1.6-10.5l-1.6-1
		L-53.5,76.4z M-73.8,66.7l20.2,9.7l3.6-18.7l-13.4-8l-1.6,0l-10.4,7.7L-73.8,66.7z M-78.5,64.6l-0.3,10.8l6.4-0.9l-1.4-7.6
		l-3.7-1.8L-78.5,64.6z M-48.2,58.8l1.4,9.9l2.8-7.4L-48.2,58.8z M-78.5,64.4l1,0.4l3.6,1.7l-1.7-9.2l-2.7,2L-78.5,64.4z
		 M-82.5,62.5l3.9,1.8l0.1-4.9L-82.5,62.5z M-43.9,61.2l0.5,0.3l0.1-2.9l-0.4-0.3L-43.9,61.2z M-48.2,58.6l4.2,2.5l0.2-2.9l-5.5-3.8
		l-0.1,0.6L-48.2,58.6z M-78,50.1l-0.3,9.3l2.7-2l-0.6-3.1l3.4-4.3L-78,50.1z M-49.9,57.6l1.5,0.9l-1.1-3.2L-49.9,57.6z M-49.3,54.4
		l5.5,3.8l0.6-7l-5.3-1L-49.3,54.4z M-63.3,49.6l13.2,7.9l0.5-2.4l-0.3-1l-7-4.7L-63.3,49.6z M-76.1,54.3l0.5,3l10.3-7.6l-7.5,0.2
		L-76.1,54.3z M-49.8,54.3l0.2,0.7l0.1-0.4L-49.8,54.3z M-49.8,54.1l0.4,0.3l0.8-4.2l-2.7-0.5L-49.8,54.1z M-56.7,49.4l6.8,4.6
		l-1.5-4.3l-1.9-0.3L-56.7,49.4z M-51.3,49.6l2.8,0.5l0.2-0.9l-3,0.1L-51.3,49.6z M-67,42.6l-5.6,7.2l7.5-0.2l0.7-0.5l-4.6-2.7
		l6.6,1.2l1.3-0.9L-67,42.6z M-64.3,49.1l-0.6,0.4l1.3,0L-64.3,49.1z M-52.8,49.3l1.3,0.2l-0.1-0.3L-52.8,49.3z M-64.2,49.1l0.8,0.5
		l6.4-0.2l-1.4-1l-3.9-0.7L-64.2,49.1z M-58.2,48.4l1.4,0.9l3.1-0.1L-58.2,48.4z M-58.4,48.3l5.1,0.9l1.7,0l-2.1-6.2l-4.4,1.5
		l-2.8,2.1L-58.4,48.3z M-68.4,46.5l4.1,2.5l1.9-1.4L-68.4,46.5z M-62.2,47.6l3.5,0.6l-2.3-1.6L-62.2,47.6z"/>
</g>
<polygon fill="none" stroke="#000000" stroke-miterlimit="10" points="-114.5,150.6 -141.4,168.8 -173.8,167.7 -199.5,147.8 
	-208.5,116.6 -197.4,86.1 -170.6,67.8 -138.1,68.9 -112.5,88.8 -103.4,120.1 "/>
<polygon fill="none" stroke="#000000" stroke-miterlimit="10" points="-134.2,152 -160,156.8 -183.7,145.4 -196.2,122.4 
	-192.7,96.4 -174.6,77.4 -148.8,72.6 -125.1,83.9 -112.7,107 -116.1,133 "/>
<polyline fill="none" stroke="#000000" stroke-miterlimit="10" points="-173.8,167.7 -160,156.8 -141.4,168.8 -125.1,83.9 
	-197.4,86.1 -199.5,147.8 -183.7,145.4 -192.7,96.4 -170.6,67.8 -112.7,107 -114.5,150.6 -134.2,152 -196.2,122.4 -208.5,116.6 
	-148.8,72.6 -138.1,68.9 -116.1,133 -112.5,88.8 -174.6,77.4 -103.4,120.1 "/>
<line fill="none" stroke="#000000" stroke-miterlimit="10" stroke-dasharray="20" x1="-213.7" y1="172.3" x2="-96.2" y2="139.1"/>
<path fill="none" stroke="#000000" stroke-miterlimit="10" stroke-dasharray="20" d="M-219.3,154.9C-218.8,154.7-116,54.5-116,54.5"
	/>
<circle fill="#FFFFFF" cx="-62.6" cy="79.2" r="0.7"/>
<circle fill="#FFFFFF" cx="-78" cy="64.7" r="1.1"/>
<circle fill="#FFFFFF" cx="-64.4" cy="49.4" r="0.8"/>
<circle fill="#FFFFFF" cx="-78.7" cy="75.4" r="1"/>
<circle fill="#FFFFFF" cx="-68.9" cy="46.3" r="0.7"/>
<circle fill="#FFFFFF" cx="-49.3" cy="54.7" r="0.7"/>
<circle fill="#FFFFFF" cx="-46.9" cy="69.1" r="1.1"/>
<g>
	<polyline fill="none" stroke="#2C7A2C" stroke-width="0.25" stroke-miterlimit="10" points="46,34.1 46,91.6 48.2,32.2 	"/>
	<polyline fill="none" stroke="#2C7A2C" stroke-width="0.25" stroke-miterlimit="10" points="75.8,35.5 75.8,93 78,33.6 	"/>
	<line fill="none" stroke="#2C7A2C" stroke-width="0.25" stroke-miterlimit="10" x1="47.1" y1="86" x2="47.1" y2="33.9"/>
	<line fill="none" stroke="#2C7A2C" stroke-width="0.25" stroke-miterlimit="10" x1="51.4" y1="86" x2="51.4" y2="33.9"/>
	<line fill="none" stroke="#2C7A2C" stroke-width="0.25" stroke-miterlimit="10" x1="55.6" y1="86" x2="55.6" y2="33.9"/>
	<line fill="none" stroke="#2C7A2C" stroke-width="0.25" stroke-miterlimit="10" x1="59.9" y1="86" x2="59.9" y2="33.9"/>
	<line fill="none" stroke="#2C7A2C" stroke-width="0.25" stroke-miterlimit="10" x1="64.1" y1="86" x2="64.1" y2="33.9"/>
	<line fill="none" stroke="#2C7A2C" stroke-width="0.25" stroke-miterlimit="10" x1="68.4" y1="86" x2="68.4" y2="33.9"/>
	<line fill="none" stroke="#2C7A2C" stroke-width="0.25" stroke-miterlimit="10" x1="72.6" y1="86" x2="72.6" y2="33.9"/>
	<line fill="none" stroke="#2C7A2C" stroke-width="0.25" stroke-miterlimit="10" x1="76.9" y1="86" x2="76.9" y2="33.9"/>
	<line fill="none" stroke="#2C7A2C" stroke-width="0.25" stroke-miterlimit="10" x1="50.4" y1="33.9" x2="48.8" y2="86.9"/>
	<line fill="none" stroke="#2C7A2C" stroke-width="0.25" stroke-miterlimit="10" x1="53.5" y1="86.6" x2="53" y2="33.9"/>
	<line fill="none" stroke="#2C7A2C" stroke-width="0.25" stroke-miterlimit="10" x1="54.8" y1="34.7" x2="56.8" y2="89.8"/>
	<line fill="none" stroke="#2C7A2C" stroke-width="0.25" stroke-miterlimit="10" x1="58.6" y1="86.6" x2="58.4" y2="33.9"/>
	<line fill="none" stroke="#2C7A2C" stroke-width="0.25" stroke-miterlimit="10" x1="61.1" y1="34.2" x2="59.9" y2="86"/>
	<line fill="none" stroke="#2C7A2C" stroke-width="0.25" stroke-miterlimit="10" x1="62.4" y1="33.9" x2="62.4" y2="86"/>
	<line fill="none" stroke="#2C7A2C" stroke-width="0.25" stroke-miterlimit="10" x1="65.2" y1="33.6" x2="65.7" y2="86"/>
	<line fill="none" stroke="#2C7A2C" stroke-width="0.25" stroke-miterlimit="10" x1="63.1" y1="34.2" x2="66.8" y2="86"/>
	<line fill="none" stroke="#2C7A2C" stroke-width="0.25" stroke-miterlimit="10" x1="66.8" y1="34.2" x2="65.2" y2="86"/>
	<line fill="none" stroke="#2C7A2C" stroke-width="0.25" stroke-miterlimit="10" x1="67.8" y1="34.2" x2="69.4" y2="86"/>
	<line fill="none" stroke="#2C7A2C" stroke-width="0.25" stroke-miterlimit="10" x1="70.4" y1="34.2" x2="70.3" y2="86"/>
	<line fill="none" stroke="#2C7A2C" stroke-width="0.25" stroke-miterlimit="10" x1="74.5" y1="33.9" x2="71.4" y2="86.6"/>
	<line fill="none" stroke="#2C7A2C" stroke-width="0.25" stroke-miterlimit="10" x1="75.2" y1="33.9" x2="74.5" y2="85.6"/>
	<line fill="none" stroke="#2C7A2C" stroke-width="0.25" stroke-miterlimit="10" x1="52.1" y1="34.2" x2="50.4" y2="85.6"/>
</g>
</svg>
