<svg xmlns="http://www.w3.org/2000/svg" viewBox="46 35.5 30.9 49.5"><path fill="#318333" d="M-8.2-3.4h143.3v138.5H-8.2z"/><path stroke="#000" stroke-width=".25" stroke-linecap="round" stroke-linejoin="round" stroke-miterlimit="10" d="M-55 84.1l-13.4-.4-10.6-8.3-3.7-12.8 4.6-12.6 11.1-7.5 13.4.4 10.5 8.2 3.7 12.8-4.6 12.6-11 7.6zm-13.3-.6l13.3.5 11-7.5 4.5-12.5-3.7-12.8-10.5-8.2-13.3-.4-11 7.5-4.5 12.5 3.7 12.8 10.5 8.1z"/><path stroke="#000" stroke-width=".25" stroke-linecap="round" stroke-linejoin="round" stroke-miterlimit="10" d="M-62.7 79.1l-9.8-4.7-5.1-9.5 1.4-10.7 7.4-7.8 10.6-2 9.8 4.7 5.1 9.5-3.6 10.3-5.3 8.2-10.5 2zm-9.7-4.7l9.7 4.7 10.6-2 5.3-8.2 3.5-10.3-5.1-9.5-9.7-4.6-10.6 2-7.4 7.8-1.4 10.7 5.1 9.4z"/><path stroke="#000" stroke-width=".25" stroke-linecap="round" stroke-linejoin="round" stroke-miterlimit="10" d="M-55 84.1l-7.7-5-5.6 4.5-.1-.1 5.7-4.5 7.6 4.9 1.4-7.5-20.1-9.7 1.4 7.7-6.6 1 .3-10.9-4.1-1.9 4.3-3.1.3-9.5 5.4-.1 5.7-7.4 6.1 4.1 2.9-2.1 4.5-1.5 2.2 6.3 3.2-.1-.2 1 5.4 1-.6 7.1.5.3-.1 3 3.9 2.3v.1l-3.8-2.3-.9 15-8.1.6-1.4-.7-1.5 7.5zm1.5-7.7l1.4.7 8-.6.6-14.8-.5-.3-2.8 7.8-1.6-10.5-1.6-1-3.5 18.7zm-20.3-9.7l20.2 9.7 3.6-18.7-13.4-8H-65l-10.4 7.7 1.6 9.3zm-4.7-2.1l-.3 10.8 6.4-.9-1.4-7.6-3.7-1.8-1-.5zm30.3-5.8l1.4 9.9 2.8-7.4-4.2-2.5zm-30.3 5.6l1 .4 3.6 1.7-1.7-9.2-2.7 2-.2 5.1zm-4-1.9l3.9 1.8.1-4.9-4 3.1zm38.6-1.3l.5.3.1-2.9-.4-.3-.2 2.9zm-4.3-2.6l4.2 2.5.2-2.9-5.5-3.8-.1.6 1.2 3.6zM-78 50.1l-.3 9.3 2.7-2-.6-3.1 3.4-4.3-5.2.1zm28.1 7.5l1.5.9-1.1-3.2-.4 2.3zm.6-3.2l5.5 3.8.6-7-5.3-1-.8 4.2zm-14-4.8l13.2 7.9.5-2.4-.3-1-7-4.7-6.4.2zm-12.8 4.7l.5 3 10.3-7.6-7.5.2-3.3 4.4zm26.3 0l.2.7.1-.4-.3-.3zm0-.2l.4.3.8-4.2-2.7-.5 1.5 4.4zm-6.9-4.7l6.8 4.6-1.5-4.3-1.9-.3h-3.4zm5.4.2l2.8.5.2-.9-3 .1v.3zm-15.7-7l-5.6 7.2 7.5-.2.7-.5-4.6-2.7 6.6 1.2 1.3-.9-5.9-4.1zm2.7 6.5l-.6.4h1.3l-.7-.4zm11.5.2l1.3.2-.1-.3-1.2.1zm-11.4-.2l.8.5 6.4-.2-1.4-1-3.9-.7-1.9 1.4zm6-.7l1.4.9 3.1-.1-4.5-.8zm-.2-.1l5.1.9h1.7l-2.1-6.2-4.4 1.5-2.8 2.1 2.5 1.7zm-10-1.8l4.1 2.5 1.9-1.4-6-1.1zm6.2 1.1l3.5.6-2.3-1.6-1.2 1z"/><path fill="none" stroke="#000" stroke-miterlimit="10" d="M-114.5 150.6l-26.9 18.2-32.4-1.1-25.7-19.9-9-31.2 11.1-30.5 26.8-18.3 32.5 1.1 25.6 19.9 9.1 31.3z"/><path fill="none" stroke="#000" stroke-miterlimit="10" d="M-134.2 152l-25.8 4.8-23.7-11.4-12.5-23 3.5-26 18.1-19 25.8-4.8 23.7 11.3 12.4 23.1-3.4 26z"/><path fill="none" stroke="#000" stroke-miterlimit="10" d="M-173.8 167.7l13.8-10.9 18.6 12 16.3-84.9-72.3 2.2-2.1 61.7 15.8-2.4-9-49 22.1-28.6 57.9 39.2-1.8 43.6-19.7 1.4-62-29.6-12.3-5.8 59.7-44 10.7-3.7 22 64.1 3.6-44.2-62.1-11.4 71.2 42.7"/><path fill="none" stroke="#000" stroke-miterlimit="10" stroke-dasharray="20" d="M-213.7 172.3l117.5-33.2m-123.1 15.8c.5-.2 103.3-100.4 103.3-100.4"/><circle fill="#FFF" cx="-62.6" cy="79.2" r=".7"/><circle fill="#FFF" cx="-78" cy="64.7" r="1.1"/><circle fill="#FFF" cx="-64.4" cy="49.4" r=".8"/><circle fill="#FFF" cx="-78.7" cy="75.4" r="1"/><circle fill="#FFF" cx="-68.9" cy="46.3" r=".7"/><circle fill="#FFF" cx="-49.3" cy="54.7" r=".7"/><circle fill="#FFF" cx="-46.9" cy="69.1" r="1.1"/><path d="M46 34.1v57.5l2.2-59.4m27.6 3.3V93L78 33.6M47.1 86V33.9M51.4 86V33.9M55.6 86V33.9M59.9 86V33.9M64.1 86V33.9M68.4 86V33.9M72.6 86V33.9M76.9 86V33.9m-26.5 0l-1.6 53m4.7-.3L53 33.9m1.8.8l2 55.1m1.8-3.2l-.2-52.7m2.7.3L59.9 86m2.5-52.1V86m2.8-52.4l.5 52.4m-2.6-51.8L66.8 86m0-51.8L65.2 86m2.6-51.8L69.4 86m1-51.8L70.3 86m4.2-52.1l-3.1 52.7m3.8-52.7l-.7 51.7M52.1 34.2l-1.7 51.4" fill="none" stroke="#2C7A2C" stroke-width=".25" stroke-miterlimit="10"/></svg>