<?xml version="1.0" encoding="utf-8"?>
<!-- Generator: Adobe Illustrator 18.1.1, SVG Export Plug-In . SVG Version: 6.00 Build 0)  -->
<svg version="1.1" id="Layer_1" xmlns="http://www.w3.org/2000/svg" xmlns:xlink="http://www.w3.org/1999/xlink" x="0px" y="0px"
	 viewBox="0 0 612 792" enable-background="new 0 0 612 792" xml:space="preserve">
<g>
	
		<polygon fill="none" stroke="#F8F8F8" stroke-width="2" stroke-linecap="round" stroke-linejoin="round" stroke-miterlimit="10" points="
		458,480.4 379.8,558.4 272,576.3 172.9,526.8 122.7,428.5 139.6,320.4 216.8,241.8 325.4,223.7 423.7,273.4 474.7,371.5 	"/>
	
		<polygon fill="none" stroke="#F8F8F8" stroke-width="2" stroke-linecap="round" stroke-linejoin="round" stroke-miterlimit="10" points="
		393.2,498 310.2,530.6 223.8,508.6 167.2,440.1 161.9,350.9 209.8,276.5 292.6,243.1 379,265.1 434.8,333.8 440.9,422.8 	"/>
	
		<polyline fill="none" stroke="#F8F8F8" stroke-width="2" stroke-linecap="round" stroke-linejoin="round" stroke-miterlimit="10" points="
		272,576.3 310.2,530.6 379.8,558.4 379,265.1 139.6,320.4 172.9,526.8 223.8,508.6 161.9,350.9 216.8,241.8 434.8,333.8 458,480.4 
		393.2,498 167.2,440.1 122.7,428.5 292.6,243.1 325.4,223.7 415.8,414.8 423.7,273.4 209.8,276.5 474.7,371.5 	"/>
</g>
<circle fill="#FFFFFF" cx="380.8" cy="497.2" r="8.8"/>
<circle fill="#FFFFFF" cx="162.8" cy="438.5" r="8.8"/>
<circle fill="#FFFFFF" cx="311.7" cy="278.4" r="6.4"/>
<circle fill="#FFFFFF" cx="222.2" cy="504.9" r="8"/>
<circle fill="#FFFFFF" cx="209" cy="276.6" r="5.6"/>
<circle fill="#FFFFFF" cx="378.7" cy="309.1" r="5.6"/>
<circle fill="#FFFFFF" cx="375.9" cy="265.7" r="5.6"/>
<circle fill="#FFFFFF" cx="162" cy="351.7" r="5.6"/>
<circle fill="#FFFFFF" cx="415" cy="414.9" r="5.6"/>
<circle fill="#FFFFFF" cx="437.7" cy="356.8" r="8.8"/>
</svg>
