<?xml version="1.0" encoding="utf-8"?>
<!-- Generator: Adobe Illustrator 18.1.1, SVG Export Plug-In . SVG Version: 6.00 Build 0)  -->
<svg version="1.1" id="Layer_1" xmlns="http://www.w3.org/2000/svg" xmlns:xlink="http://www.w3.org/1999/xlink" x="0px" y="0px"
	 viewBox="-103 353 403.4 88" enable-background="new -103 353 403.4 88" xml:space="preserve">
<g>
	<path fill="#F8F8F8" d="M14.5,385.5c-1.3,0.7-4.2,1.4-7.9,1.4c-9.7,0-15.5-6.1-15.5-15.3c0-10,7-16.1,16.3-16.1
		c3.7,0,6.3,0.8,7.4,1.4l-1.2,4.4c-1.4-0.6-3.4-1.2-6-1.2c-6.2,0-10.7,3.9-10.7,11.2c0,6.7,3.9,11,10.6,11c2.3,0,4.6-0.4,6.1-1.1
		L14.5,385.5z"/>
</g>
<rect x="18.4" y="354.3" fill="#F8F8F8" width="5.6" height="32.1"/>
<g>
	<path fill="#F8F8F8" d="M29.2,364.4h5.6v22h-5.6V364.4z M35.1,358.3c0,1.7-1.2,3-3.2,3c-1.9,0-3.1-1.3-3.1-3c0-1.7,1.3-3,3.1-3
		C33.9,355.2,35.1,356.5,35.1,358.3"/>
	<path fill="#F8F8F8" d="M53.5,373.1c0-2-0.9-5.4-4.6-5.4c-3.4,0-4.9,3.1-5.1,5.4H53.5z M43.9,377c0.1,4,3.2,5.7,6.8,5.7
		c2.6,0,4.4-0.4,6.1-1l0.8,3.8c-1.9,0.8-4.5,1.4-7.7,1.4c-7.1,0-11.3-4.4-11.3-11.1c0-6.1,3.7-11.8,10.7-11.8
		c7.1,0,9.5,5.9,9.5,10.7c0,1-0.1,1.9-0.2,2.3C58.6,377,43.9,377,43.9,377z"/>
	<path fill="#F8F8F8" d="M62.8,370.9c0-2.5,0-4.7-0.2-6.5h4.9l0.3,3.3h0.1c0.9-1.7,3.3-3.8,7-3.8c3.8,0,7.8,2.5,7.8,9.4v13h-5.6V374
		c0-3.2-1.2-5.6-4.2-5.6c-2.2,0-3.8,1.6-4.3,3.2c-0.2,0.5-0.2,1.2-0.2,1.8v12.9h-5.6L62.8,370.9L62.8,370.9z"/>
	<path fill="#F8F8F8" d="M94.3,358.1v6.3h5.3v4.2h-5.3v9.7c0,2.7,0.7,4.1,2.8,4.1c0.9,0,1.7-0.1,2.2-0.3l0.1,4.2
		c-0.8,0.3-2.3,0.5-4,0.5c-2,0-3.7-0.7-4.8-1.8c-1.2-1.3-1.7-3.2-1.7-6.1v-10.3h-3.2v-4.2h3.2v-5L94.3,358.1z"/>
</g>
<polygon fill="#F8F8F8" points="113.6,356 131.2,356 131.2,360.5 119.2,360.5 119.2,368.9 130.4,368.9 130.4,373.5 119.2,373.5 
	119.2,386.4 113.6,386.4 "/>
<g>
	<path fill="#F8F8F8" d="M135,364.4h5.6v22H135V364.4z M140.9,358.3c0,1.7-1.2,3-3.2,3c-1.9,0-3.1-1.3-3.1-3c0-1.7,1.3-3,3.1-3
		C139.7,355.2,140.8,356.5,140.9,358.3"/>
	<path fill="#F8F8F8" d="M146.1,371.5c0-3-0.1-5.1-0.2-7.1h4.8l0.2,4.2h0.2c1.1-3.1,3.7-4.7,6-4.7c0.5,0,0.9,0,1.3,0.1v5.2
		c-0.5-0.1-0.9-0.2-1.6-0.2c-2.7,0-4.5,1.7-5,4.2c-0.1,0.5-0.2,1.1-0.2,1.7v11.4h-5.6L146.1,371.5L146.1,371.5z"/>
	<path fill="#F8F8F8" d="M161.4,381.3c1.3,0.8,3.6,1.6,5.6,1.6c2.4,0,3.5-1,3.5-2.4c0-1.5-0.9-2.3-3.6-3.2c-4.3-1.5-6.1-3.8-6-6.4
		c0-3.9,3.2-6.9,8.3-6.9c2.4,0,4.6,0.6,5.8,1.3l-1.1,3.9c-0.9-0.5-2.7-1.3-4.7-1.3c-2,0-3.1,0.9-3.1,2.3c0,1.4,1,2.1,3.8,3.1
		c4,1.4,5.8,3.5,5.9,6.7c0,4-3.1,6.9-8.9,6.9c-2.7,0-5.1-0.6-6.7-1.5L161.4,381.3z"/>
	<path fill="#F8F8F8" d="M186.4,358.1v6.3h5.3v4.2h-5.3v9.7c0,2.7,0.7,4.1,2.8,4.1c0.9,0,1.7-0.1,2.2-0.3l0.1,4.2
		c-0.8,0.3-2.3,0.5-4,0.5c-2,0-3.8-0.7-4.8-1.8c-1.2-1.3-1.7-3.2-1.7-6.1v-10.3h-3.2v-4.2h3.2v-5L186.4,358.1z"/>
	<path fill="#F8F8F8" d="M194.5,383.3c0-2.1,1.4-3.6,3.4-3.6c2,0,3.4,1.4,3.4,3.6c0,2-1.4,3.6-3.4,3.6
		C195.9,386.9,194.5,385.3,194.5,383.3"/>
</g>
<polygon fill="#F8F8F8" points="-101.7,403.8 -101.7,434.2 -96.1,434.2 -96.1,421.3 -84.9,421.3 -84.9,416.8 -96.1,416.8 
	-96.1,408.4 -84.1,408.4 -84.1,403.8 "/>
<g>
	<path fill="#F8F8F8" d="M-80,412.3h5.6v22H-80V412.3z M-74.1,406.1c0,1.7-1.2,3-3.2,3c-1.8,0-3.1-1.3-3.1-3c0-1.7,1.3-3,3.1-3
		C-75.3,403.1-74.1,404.4-74.1,406.1"/>
	<path fill="#F8F8F8" d="M-69.4,418.8c0-2.5,0-4.7-0.2-6.6h4.9l0.3,3.3h0.1c0.9-1.7,3.3-3.8,7-3.8c3.8,0,7.8,2.5,7.8,9.4v13H-55
		v-12.4c0-3.2-1.2-5.6-4.2-5.6c-2.2,0-3.7,1.6-4.3,3.2c-0.2,0.5-0.2,1.2-0.2,1.8v12.9h-5.6C-69.4,434.2-69.4,418.8-69.4,418.8z"/>
	<path fill="#F8F8F8" d="M-32.8,423.5c-3.9-0.1-7.7,0.8-7.7,4.1c0,2.2,1.4,3.2,3.2,3.2c2.2,0,3.8-1.4,4.3-3c0.1-0.4,0.2-0.9,0.2-1.2
		V423.5z M-32.1,434.2l-0.4-2.4h-0.1c-1.4,1.7-3.7,2.9-6.5,2.9c-4.4,0-6.9-3.2-6.9-6.5c0-5.6,4.9-8.4,13-8.3v-0.4
		c0-1.4-0.6-3.8-4.5-3.8c-2.2,0-4.4,0.7-5.9,1.6l-1.1-3.6c1.6-1,4.5-1.9,7.9-1.9c7,0,9.1,4.5,9.1,9.3v7.9c0,2,0.1,3.9,0.3,5.3
		C-27.1,434.2-32.1,434.2-32.1,434.2z"/>
	<path fill="#F8F8F8" d="M-22.6,418.8c0-2.5,0-4.7-0.2-6.6h4.9l0.3,3.3h0.1c0.9-1.7,3.3-3.8,7-3.8c3.8,0,7.8,2.5,7.8,9.4v13h-5.6
		v-12.4c0-3.2-1.2-5.6-4.2-5.6c-2.2,0-3.7,1.6-4.3,3.2c-0.2,0.5-0.2,1.2-0.2,1.8v12.9h-5.6L-22.6,418.8L-22.6,418.8z"/>
	<path fill="#F8F8F8" d="M18.5,433.6c-1.2,0.5-3.5,1.1-6.2,1.1c-6.9,0-11.3-4.4-11.3-11.2c0-6.6,4.5-11.7,12.2-11.7
		c2,0,4.1,0.4,5.4,1l-1,4.2c-0.9-0.4-2.2-0.9-4.2-0.9c-4.2,0-6.8,3.1-6.7,7.1c0,4.5,2.9,7.1,6.7,7.1c1.9,0,3.3-0.4,4.4-0.9
		L18.5,433.6z"/>
	<path fill="#F8F8F8" d="M22.2,412.3h5.6v22h-5.6V412.3z M28.1,406.1c0,1.7-1.2,3-3.2,3c-1.8,0-3.1-1.3-3.1-3c0-1.7,1.3-3,3.1-3
		C26.9,403.1,28,404.4,28.1,406.1"/>
	<path fill="#F8F8F8" d="M44.5,423.5c-3.9-0.1-7.7,0.8-7.7,4.1c0,2.2,1.4,3.2,3.2,3.2c2.2,0,3.8-1.4,4.3-3c0.1-0.4,0.2-0.9,0.2-1.2
		L44.5,423.5L44.5,423.5z M45.2,434.2l-0.4-2.4h-0.1c-1.4,1.7-3.7,2.9-6.5,2.9c-4.4,0-6.9-3.2-6.9-6.5c0-5.6,4.9-8.4,13-8.3v-0.4
		c0-1.4-0.6-3.8-4.5-3.8c-2.2,0-4.4,0.7-5.9,1.6l-1.1-3.6c1.6-1,4.5-1.9,7.9-1.9c7,0,9.1,4.5,9.1,9.3v7.9c0,2,0.1,3.9,0.3,5.3
		C50.2,434.2,45.2,434.2,45.2,434.2z"/>
</g>
<rect x="54.7" y="402.2" fill="#F8F8F8" width="5.6" height="32.1"/>
<g>
	<path fill="#F8F8F8" d="M91.7,421.4l-2.4-7.5c-0.6-1.8-1.1-3.9-1.5-5.7h-0.1c-0.5,1.8-0.9,3.9-1.4,5.7l-2.3,7.5H91.7z M83,425.6
		l-2.6,8.6h-5.7l9.8-30.4h7.1l9.9,30.4h-6l-2.8-8.6H83z"/>
	<path fill="#F8F8F8" d="M118.5,421.4c0-0.5-0.1-1-0.1-1.4c-0.5-2.2-2.3-3.9-4.8-3.9c-3.6,0-5.6,3.2-5.6,7.3c0,4,2,6.9,5.5,6.9
		c2.3,0,4.2-1.5,4.8-3.9c0.1-0.5,0.2-1,0.2-1.6L118.5,421.4L118.5,421.4z M124,402.2v25.9c0,2.3,0.1,4.7,0.2,6.2h-5l-0.2-3.5h-0.1
		c-1.3,2.4-4,4-7.2,4c-5.2,0-9.4-4.5-9.4-11.2c0-7.4,4.6-11.7,9.8-11.7c3,0,5.2,1.3,6.2,2.9h0.1v-12.5L124,402.2L124,402.2z"/>
	<path fill="#F8F8F8" d="M133.1,412.3l3.6,11.1c0.6,1.9,1.1,3.7,1.5,5.5h0.1c0.4-1.8,0.9-3.5,1.5-5.5l3.5-11.1h5.9l-8.4,22h-5.5
		l-8.2-22H133.1z"/>
	<path fill="#F8F8F8" d="M152,412.3h5.6v22H152V412.3z M157.9,406.1c0,1.7-1.2,3-3.2,3c-1.8,0-3.1-1.3-3.1-3c0-1.7,1.3-3,3.1-3
		C156.7,403.1,157.9,404.4,157.9,406.1"/>
	<path fill="#F8F8F8" d="M179.3,433.6c-1.2,0.5-3.5,1.1-6.2,1.1c-6.9,0-11.3-4.4-11.3-11.2c0-6.6,4.5-11.7,12.2-11.7
		c2,0,4.1,0.4,5.4,1l-1,4.2c-0.9-0.4-2.2-0.9-4.2-0.9c-4.2,0-6.8,3.1-6.7,7.1c0,4.5,2.9,7.1,6.7,7.1c1.9,0,3.3-0.4,4.4-0.9
		L179.3,433.6z"/>
	<path fill="#F8F8F8" d="M196.1,420.9c0-2-0.9-5.4-4.6-5.4c-3.4,0-4.9,3.1-5.1,5.4H196.1z M186.5,424.8c0.1,4,3.2,5.7,6.8,5.7
		c2.6,0,4.4-0.4,6.1-1l0.8,3.8c-1.9,0.8-4.5,1.4-7.7,1.4c-7.1,0-11.3-4.4-11.3-11.1c0-6.1,3.7-11.8,10.7-11.8
		c7.1,0,9.5,5.9,9.5,10.7c0,1-0.1,1.8-0.2,2.3L186.5,424.8L186.5,424.8z"/>
	<path fill="#F8F8F8" d="M250,421.1l-5.3-5.3l18.7-18.7l-18.7-18.7l5.3-5.3l24,24L250,421.1z M256.8,357.3
		c-21.9,0-39.7,17.8-39.7,39.7c0,21.9,17.8,39.7,39.7,39.7c21.9,0,39.7-17.8,39.7-39.7C296.5,375.1,278.7,357.3,256.8,357.3"/>
</g>
</svg>
