<svg xmlns="http://www.w3.org/2000/svg" viewBox="-103 353 403.4 88"><path fill="#F8F8F8" d="M14.5 385.5c-1.3.7-4.2 1.4-7.9 1.4-9.7 0-15.5-6.1-15.5-15.3 0-10 7-16.1 16.3-16.1 3.7 0 6.3.8 7.4 1.4l-1.2 4.4c-1.4-.6-3.4-1.2-6-1.2-6.2 0-10.7 3.9-10.7 11.2 0 6.7 3.9 11 10.6 11 2.3 0 4.6-.4 6.1-1.1l.9 4.3zm3.9-31.2H24v32.1h-5.6zm10.8 10.1h5.6v22h-5.6v-22zm5.9-6.1c0 1.7-1.2 3-3.2 3-1.9 0-3.1-1.3-3.1-3s1.3-3 3.1-3c2-.1 3.2 1.2 3.2 3m18.4 14.8c0-2-.9-5.4-4.6-5.4-3.4 0-4.9 3.1-5.1 5.4h9.7zm-9.6 3.9c.1 4 3.2 5.7 6.8 5.7 2.6 0 4.4-.4 6.1-1l.8 3.8c-1.9.8-4.5 1.4-7.7 1.4-7.1 0-11.3-4.4-11.3-11.1 0-6.1 3.7-11.8 10.7-11.8 7.1 0 9.5 5.9 9.5 10.7 0 1-.1 1.9-.2 2.3H43.9zm18.9-6.1c0-2.5 0-4.7-.2-6.5h4.9l.3 3.3h.1c.9-1.7 3.3-3.8 7-3.8 3.8 0 7.8 2.5 7.8 9.4v13h-5.6V374c0-3.2-1.2-5.6-4.2-5.6-2.2 0-3.8 1.6-4.3 3.2-.2.5-.2 1.2-.2 1.8v12.9h-5.6v-15.4zm31.5-12.8v6.3h5.3v4.2h-5.3v9.7c0 2.7.7 4.1 2.8 4.1.9 0 1.7-.1 2.2-.3l.1 4.2c-.8.3-2.3.5-4 .5-2 0-3.7-.7-4.8-1.8-1.2-1.3-1.7-3.2-1.7-6.1v-10.3h-3.2v-4.2h3.2v-5l5.4-1.3zm19.3-2.1h17.6v4.5h-12v8.4h11.2v4.6h-11.2v12.9h-5.6zm21.4 8.4h5.6v22H135v-22zm5.9-6.1c0 1.7-1.2 3-3.2 3-1.9 0-3.1-1.3-3.1-3s1.3-3 3.1-3c2-.1 3.1 1.2 3.2 3m5.2 13.2c0-3-.1-5.1-.2-7.1h4.8l.2 4.2h.2c1.1-3.1 3.7-4.7 6-4.7.5 0 .9 0 1.3.1v5.2c-.5-.1-.9-.2-1.6-.2-2.7 0-4.5 1.7-5 4.2-.1.5-.2 1.1-.2 1.7v11.4H146l.1-14.8zm15.3 9.8c1.3.8 3.6 1.6 5.6 1.6 2.4 0 3.5-1 3.5-2.4 0-1.5-.9-2.3-3.6-3.2-4.3-1.5-6.1-3.8-6-6.4 0-3.9 3.2-6.9 8.3-6.9 2.4 0 4.6.6 5.8 1.3l-1.1 3.9c-.9-.5-2.7-1.3-4.7-1.3s-3.1.9-3.1 2.3 1 2.1 3.8 3.1c4 1.4 5.8 3.5 5.9 6.7 0 4-3.1 6.9-8.9 6.9-2.7 0-5.1-.6-6.7-1.5l1.2-4.1zm25-23.2v6.3h5.3v4.2h-5.3v9.7c0 2.7.7 4.1 2.8 4.1.9 0 1.7-.1 2.2-.3l.1 4.2c-.8.3-2.3.5-4 .5-2 0-3.8-.7-4.8-1.8-1.2-1.3-1.7-3.2-1.7-6.1v-10.3h-3.2v-4.2h3.2v-5l5.4-1.3zm8.1 25.2c0-2.1 1.4-3.6 3.4-3.6s3.4 1.4 3.4 3.6c0 2-1.4 3.6-3.4 3.6s-3.4-1.6-3.4-3.6m-296.2 20.5v30.4h5.6v-12.9h11.2v-4.5h-11.2v-8.4h12v-4.6zm21.7 8.5h5.6v22H-80v-22zm5.9-6.2c0 1.7-1.2 3-3.2 3-1.8 0-3.1-1.3-3.1-3s1.3-3 3.1-3c2 0 3.2 1.3 3.2 3m4.7 12.7c0-2.5 0-4.7-.2-6.6h4.9l.3 3.3h.1c.9-1.7 3.3-3.8 7-3.8 3.8 0 7.8 2.5 7.8 9.4v13H-55v-12.4c0-3.2-1.2-5.6-4.2-5.6-2.2 0-3.7 1.6-4.3 3.2-.2.5-.2 1.2-.2 1.8V434h-5.6c-.1.2-.1-15.2-.1-15.2zm36.6 4.7c-3.9-.1-7.7.8-7.7 4.1 0 2.2 1.4 3.2 3.2 3.2 2.2 0 3.8-1.4 4.3-3 .1-.4.2-.9.2-1.2v-3.1zm.7 10.7l-.4-2.4h-.1c-1.4 1.7-3.7 2.9-6.5 2.9-4.4 0-6.9-3.2-6.9-6.5 0-5.6 4.9-8.4 13-8.3v-.4c0-1.4-.6-3.8-4.5-3.8-2.2 0-4.4.7-5.9 1.6l-1.1-3.6c1.6-1 4.5-1.9 7.9-1.9 7 0 9.1 4.5 9.1 9.3v7.9c0 2 .1 3.9.3 5.3.1-.1-4.9-.1-4.9-.1zm9.5-15.4c0-2.5 0-4.7-.2-6.6h4.9l.3 3.3h.1c.9-1.7 3.3-3.8 7-3.8 3.8 0 7.8 2.5 7.8 9.4v13h-5.6v-12.4c0-3.2-1.2-5.6-4.2-5.6-2.2 0-3.7 1.6-4.3 3.2-.2.5-.2 1.2-.2 1.8V434h-5.6v-15.2zm41.1 14.8c-1.2.5-3.5 1.1-6.2 1.1-6.9 0-11.3-4.4-11.3-11.2 0-6.6 4.5-11.7 12.2-11.7 2 0 4.1.4 5.4 1l-1 4.2c-.9-.4-2.2-.9-4.2-.9-4.2 0-6.8 3.1-6.7 7.1 0 4.5 2.9 7.1 6.7 7.1 1.9 0 3.3-.4 4.4-.9l.7 4.2zm3.7-21.3h5.6v22h-5.6v-22zm5.9-6.2c0 1.7-1.2 3-3.2 3-1.8 0-3.1-1.3-3.1-3s1.3-3 3.1-3c2 0 3.1 1.3 3.2 3m16.4 17.4c-3.9-.1-7.7.8-7.7 4.1 0 2.2 1.4 3.2 3.2 3.2 2.2 0 3.8-1.4 4.3-3 .1-.4.2-.9.2-1.2v-3.1zm.7 10.7l-.4-2.4h-.1c-1.4 1.7-3.7 2.9-6.5 2.9-4.4 0-6.9-3.2-6.9-6.5 0-5.6 4.9-8.4 13-8.3v-.4c0-1.4-.6-3.8-4.5-3.8-2.2 0-4.4.7-5.9 1.6l-1.1-3.6c1.6-1 4.5-1.9 7.9-1.9 7 0 9.1 4.5 9.1 9.3v7.9c0 2 .1 3.9.3 5.3.1-.1-4.9-.1-4.9-.1zm9.5-32h5.6v32.1h-5.6zm37 19.2l-2.4-7.5c-.6-1.8-1.1-3.9-1.5-5.7h-.1c-.5 1.8-.9 3.9-1.4 5.7l-2.3 7.5h7.7zm-8.7 4.2l-2.6 8.6h-5.7l9.8-30.4h7.1l9.9 30.4h-6l-2.8-8.6H83zm35.5-4.2c0-.5-.1-1-.1-1.4-.5-2.2-2.3-3.9-4.8-3.9-3.6 0-5.6 3.2-5.6 7.3 0 4 2 6.9 5.5 6.9 2.3 0 4.2-1.5 4.8-3.9.1-.5.2-1 .2-1.6v-3.4zm5.5-19.2v25.9c0 2.3.1 4.7.2 6.2h-5l-.2-3.5h-.1c-1.3 2.4-4 4-7.2 4-5.2 0-9.4-4.5-9.4-11.2 0-7.4 4.6-11.7 9.8-11.7 3 0 5.2 1.3 6.2 2.9h.1v-12.5l5.6-.1zm9.1 10.1l3.6 11.1c.6 1.9 1.1 3.7 1.5 5.5h.1c.4-1.8.9-3.5 1.5-5.5l3.5-11.1h5.9l-8.4 22h-5.5l-8.2-22h6zm18.9 0h5.6v22H152v-22zm5.9-6.2c0 1.7-1.2 3-3.2 3-1.8 0-3.1-1.3-3.1-3s1.3-3 3.1-3c2 0 3.2 1.3 3.2 3m21.4 27.5c-1.2.5-3.5 1.1-6.2 1.1-6.9 0-11.3-4.4-11.3-11.2 0-6.6 4.5-11.7 12.2-11.7 2 0 4.1.4 5.4 1l-1 4.2c-.9-.4-2.2-.9-4.2-.9-4.2 0-6.8 3.1-6.7 7.1 0 4.5 2.9 7.1 6.7 7.1 1.9 0 3.3-.4 4.4-.9l.7 4.2zm16.8-12.7c0-2-.9-5.4-4.6-5.4-3.4 0-4.9 3.1-5.1 5.4h9.7zm-9.6 3.9c.1 4 3.2 5.7 6.8 5.7 2.6 0 4.4-.4 6.1-1l.8 3.8c-1.9.8-4.5 1.4-7.7 1.4-7.1 0-11.3-4.4-11.3-11.1 0-6.1 3.7-11.8 10.7-11.8 7.1 0 9.5 5.9 9.5 10.7 0 1-.1 1.8-.2 2.3h-14.7zm63.5-3.7l-5.3-5.3 18.7-18.7-18.7-18.7 5.3-5.3 24 24-24 24zm6.8-63.8c-21.9 0-39.7 17.8-39.7 39.7 0 21.9 17.8 39.7 39.7 39.7 21.9 0 39.7-17.8 39.7-39.7 0-21.9-17.8-39.7-39.7-39.7"/></svg>