<?xml version="1.0" encoding="utf-8"?>
<!-- Generator: Adobe Illustrator 18.1.1, SVG Export Plug-In . SVG Version: 6.00 Build 0)  -->
<svg version="1.1" id="Layer_1" xmlns="http://www.w3.org/2000/svg" xmlns:xlink="http://www.w3.org/1999/xlink" x="0px" y="0px"
	 viewBox="208.5 301 194.9 190" enable-background="new 208.5 301 194.9 190" xml:space="preserve">
<g>
	<path fill="#767879" d="M574.6-314.6H329.5c-17,0-30.6-13.6-30.6-30.6v-224.5c0-17,11.5-30.6,25.5-30.6h15.3v20.4h-15.3
		c-1.7,0-5.1,4-5.1,10.2v224.5c0,5.7,4.5,10.2,10.2,10.2h245.1c5.7,0,10.2-4.5,10.2-10.2v-224.5c0-6.1-3.3-10.2-5.1-10.2h-15.3
		v-20.4h15.3c14.2,0,25.5,13.6,25.5,30.6v224.5C605.2-328.5,591.3-314.6,574.6-314.6"/>
	<path fill="#767879" d="M370.5-559.7c-5.7,0-10.2-4.5-10.2-10.2v-40.8c0-5.7,4.5-10.2,10.2-10.2c5.7,0,10.2,4.5,10.2,10.2v40.8
		C380.6-564.1,376-559.7,370.5-559.7"/>
	<path fill="#767879" d="M533.6-559.7c-5.7,0-10.2-4.5-10.2-10.2v-40.8c0-5.7,4.5-10.2,10.2-10.2s10.2,4.5,10.2,10.2v40.8
		C544-564.1,539.3-559.7,533.6-559.7"/>
	<rect x="401.1" y="-600.4" fill="#767879" width="102.1" height="20.4"/>
	<rect x="319.4" y="-539.2" fill="#767879" width="265.2" height="20.4"/>
	<rect x="544" y="-498.5" fill="#767879" width="20.4" height="20.4"/>
	<rect x="503" y="-498.5" fill="#328941" width="20.4" height="20.4"/>
	<rect x="462.3" y="-498.5" fill="#767879" width="20.4" height="20.4"/>
	<rect x="421.3" y="-498.5" fill="#767879" width="20.4" height="20.4"/>
	<rect x="380.6" y="-498.5" fill="#767879" width="20.4" height="20.4"/>
	<rect x="544" y="-457.5" fill="#767879" width="20.4" height="20.4"/>
	<rect x="503" y="-457.5" fill="#767879" width="20.4" height="20.4"/>
	<rect x="462.3" y="-457.5" fill="#767879" width="20.4" height="20.4"/>
	<rect x="421.3" y="-457.5" fill="#328941" width="20.4" height="20.4"/>
	<rect x="380.6" y="-457.5" fill="#767879" width="20.4" height="20.4"/>
	<rect x="339.7" y="-457.5" fill="#767879" width="20.4" height="20.4"/>
	<rect x="544" y="-416.8" fill="#767879" width="20.4" height="20.4"/>
	<rect x="503" y="-416.8" fill="#767879" width="20.4" height="20.4"/>
	<rect x="462.3" y="-416.8" fill="#767879" width="20.4" height="20.4"/>
	<rect x="421.3" y="-416.8" fill="#767879" width="20.4" height="20.4"/>
	<rect x="380.6" y="-416.8" fill="#767879" width="20.4" height="20.4"/>
	<rect x="339.7" y="-416.8" fill="#767879" width="20.4" height="20.4"/>
	<rect x="503" y="-375.8" fill="#767879" width="20.4" height="20.4"/>
	<rect x="462.3" y="-375.8" fill="#328941" width="20.4" height="20.4"/>
	<rect x="421.3" y="-375.8" fill="#767879" width="20.4" height="20.4"/>
	<rect x="380.6" y="-375.8" fill="#767879" width="20.4" height="20.4"/>
	<rect x="339.7" y="-375.8" fill="#767879" width="20.4" height="20.4"/>
</g>
<g>
	<g>
		<path fill="none" stroke="#767879" stroke-width="4" stroke-miterlimit="10" d="M315.2,303.1c0.6,0.2,1.2,0.2,1.9,0.3
			c1.6,0.3,3.4,0.6,5,0.7c7.4,1,14.7,3.1,22.3,6.4c12.7,5.7,23.8,13.6,32.6,23.8c5,5.5,8.8,11,11.9,16.6c6,11,9.7,21.7,11,33
			c0.2,1.2,0.3,2.3,0.6,3.4c0,0.3,0.2,0.6,0.2,1v16c-0.2,0.6-0.2,1.2-0.3,1.9c-0.3,1.6-0.6,3.4-0.7,5c-1,7.4-3.1,14.7-6.4,22.3
			c-5.7,12.7-13.6,23.8-23.6,32.4c-5.5,5-11,8.8-16.6,11.9c-11,6-21.7,9.7-33,11c-1.2,0.2-2.3,0.3-3.4,0.6c-0.3,0-0.6,0.2-1,0.2
			h-16.3c-0.3,0-0.6-0.2-1-0.2c-1-0.2-2.2-0.4-3.4-0.6c-5.3-0.6-10.8-1.9-17.2-4c-10-3.4-19.2-8.3-28-15.1
			c-6.3-4.9-12-10.6-16.9-17.2c-4.9-6.3-8.8-13.3-11.7-20.7c-3.6-8.7-5.5-16.1-6.2-23.3c-0.2-1.2-0.3-2.3-0.6-3.4
			c0-0.3-0.2-0.6-0.2-0.9v-15.9c0-0.3,0.2-0.6,0.2-0.7c0.2-1,0.4-2.2,0.6-3.4c0.4-5.1,1.7-10.7,4-17.4c3.4-10,8.2-19.2,15.1-28
			c4.9-6.3,10.6-12,17.2-16.9c6.3-4.9,13.3-8.8,20.7-11.7c8.7-3.6,16.1-5.5,23.3-6.2c1.2-0.2,2.3-0.3,3.4-0.6c0.3,0,0.6-0.2,0.9-0.2
			L315.2,303.1 M246,376c1.5,0,3.1-0.4,4.5-1.2c10.1-5,21-8.8,32.4-11.3c7.2-1.6,14.6-2.5,21.8-2.6c0.6,0,1.2,0,1.7,0
			c3.4,0,7.2,0.3,11.9,0.7c4.9,0.6,10,1.2,14.8,2.3c11.3,2.6,21.2,6.3,30.3,10.8c1.7,0.9,3.6,1.3,5.1,1.3c1.7,0,4.2-0.4,6.6-2.9
			c3.6-3.6,4.1-7.2,1.7-11.9c-4-8.1-9.5-15.4-16.9-22.2c-4.4-4.1-9.5-7.8-15-10.8c-11.7-6.6-24.5-9.8-37.9-10h-0.3h-0.3
			c-1.2,0.2-2.3,0.2-3.4,0.3c-2.5,0.3-5.1,0.4-7.8,0.7c-6.9,0.7-13.6,2.8-20.4,5.9c-10.1,4.7-18.4,10.6-25.1,18
			c-5.5,5.9-9.5,11.7-12.7,18c-1.9,3.8-1.3,8.1,1.7,11.4C241.1,375,243.5,376,246,376 M307.2,421.2c13.8,0,24.6-10.8,25-24.8v-0.2
			v-0.1c-0.3-13.8-11-24.6-24.6-24.8h-0.3c-13.6,0-24.8,11.2-25,24.8c0,13.6,11,25,24.6,25L307.2,421.2 M325.8,471.8
			c1,0,2.1-0.2,3.2-0.6c14.8-5,27.3-13.1,36.8-24.4c7.4-8.5,12.7-18.2,16.1-28.6c1.3-4,0-6.6-0.9-7.8c-0.9-1.2-2.8-3.1-6.8-3.1
			c-0.2,0-0.4,0-0.6,0c-3.6,0.2-7.4,0.6-10.7,1.2c-10.2,1.7-19.5,6.6-27.6,14.2c-4.9,4.5-8.7,10-11.9,16.7c-3.1,6.3-4.9,13.5-5.3,22
			v0.2v0.2C318.3,470.7,323.5,471.8,325.8,471.8 M288.4,471.7c2.2,0,4-0.7,5.5-2.2c1-1,2.3-2.9,2.3-6.2c0-1-0.2-1.9-0.2-2.8
			c0-0.6-0.2-1-0.2-1.5c-0.3-6.6-1.9-13.1-5.1-19.8c-4.5-9.7-11.4-17.4-20.4-23.1c-7.9-5-16.7-7.6-27-8.1h-0.2H243
			c-0.3,0-0.4,0-0.7,0s-0.6,0-0.9,0c-0.4,0-0.7,0-1.2,0c-2.8,0.2-5.1,1.3-6.6,3.4c-1.3,1.9-1.6,4.4-0.9,6.9
			c1.2,3.4,2.5,7.4,4.1,11.2c4.2,9.4,10.1,17.3,17.3,23.9c2.8,2.5,5.5,4.9,8.5,7c6.8,4.9,14.2,8.3,22.6,10.7
			C286.5,471.5,287.5,471.7,288.4,471.7"/>
	</g>
</g>
</svg>
