<svg xmlns="http://www.w3.org/2000/svg" width="792" height="612" viewBox="0 0 792 612"><path d="M1469.836-1681.88h-789.48c-54.758 0-98.563-43.807-98.563-98.564v-723.126c0-54.758 37.042-98.564 82.137-98.564h49.282v65.709H663.93c-5.477 0-16.428 12.884-16.428 32.855v723.126c0 18.36 14.495 32.855 32.854 32.855h789.48c18.359 0 32.854-14.495 32.854-32.855v-723.126c0-19.648-10.63-32.855-16.427-32.855h-49.282v-65.709h49.282c45.738 0 82.137 43.806 82.137 98.564v723.126c0 53.791-44.773 98.564-98.564 98.564"/><path d="M812.419-2471.36c-18.36 0-32.854-14.495-32.854-32.854v-131.419c0-18.36 14.494-32.854 32.854-32.854s32.854 14.495 32.854 32.854v131.419c-.322 18.681-15.138 32.854-32.854 32.854m525.353 0c-18.36 0-32.854-14.495-32.854-32.854v-131.419c0-18.36 14.494-32.854 32.854-32.854s32.854 14.495 32.854 32.854v131.419c.645 18.681-14.493 32.854-32.854 32.854m-426.789-131.097h328.869v65.709H910.983v-65.709zm-263.16 197.128h854.223v65.709H647.823v-65.709zm723.448 131.098h65.71v65.709h-65.71v-65.709z"/><path fill="#328941" d="M1239.208-2274.231h65.71v65.709h-65.71v-65.709z"/><path d="M1108.111-2274.231h65.71v65.709h-65.71v-65.709zm-132.062 0h65.709v65.709h-65.709v-65.709zm-131.098 0h65.71v65.709h-65.71v-65.709zm526.32 132.063h65.71v65.709h-65.71v-65.709zm-132.063 0h65.71v65.709h-65.71v-65.709zm-131.097 0h65.71v65.709h-65.71v-65.709z"/><path fill="#328941" d="M976.049-2142.168h65.709v65.709h-65.709v-65.709z"/><path d="M844.951-2142.168h65.71v65.709h-65.71v-65.709zm-131.74 0h65.709v65.709h-65.709v-65.709zm658.06 131.097h65.71v65.709h-65.71v-65.709zm-132.063 0h65.71v65.709h-65.71v-65.709zm-131.097 0h65.71v65.709h-65.71v-65.709zm-132.062 0h65.709v65.709h-65.709v-65.709zm-131.098 0h65.71v65.709h-65.71v-65.709zm-131.74 0h65.709v65.709h-65.709v-65.709zm525.997 132.063h65.71v65.709h-65.71v-65.709z"/><path fill="#328941" d="M1108.111-1879.008h65.71v65.709h-65.71v-65.709z"/><path d="M976.049-1879.008h65.709v65.709h-65.709v-65.709zm-131.098 0h65.71v65.709h-65.71v-65.709zm-131.74 0h65.709v65.709h-65.709v-65.709z"/><path fill="none" stroke="#000" stroke-width="24" stroke-miterlimit="10" d="M443.405 26.401c1.811.603 3.621.603 5.733.905 4.827.906 10.258 1.81 15.085 2.112 22.328 3.017 44.354 9.354 67.287 19.311 38.319 17.199 71.812 41.036 98.363 71.812 15.087 16.595 26.553 33.19 35.906 50.087 18.104 33.19 29.268 65.475 33.19 99.571.603 3.621.904 6.939 1.811 10.258 0 .906.603 1.811.603 3.018v48.276c-.603 1.811-.603 3.621-.904 5.733-.906 4.828-1.811 10.259-2.112 15.087-3.018 22.328-9.354 44.354-19.311 67.285-17.199 38.32-41.035 71.812-71.209 97.761-16.596 15.087-33.19 26.553-50.087 35.906-33.19 18.104-65.476 29.268-99.57 33.19-3.621.603-6.939.904-10.26 1.81-.904 0-1.811.604-3.017.604h-49.182c-.906 0-1.81-.604-3.018-.604-3.017-.604-6.638-1.207-10.258-1.81-15.991-1.812-32.586-5.733-51.897-12.07-30.173-10.258-57.932-25.043-84.484-45.561-19.009-14.785-36.208-31.983-50.992-51.897-14.785-19.01-26.552-40.13-35.303-62.458-10.862-26.251-16.595-48.579-18.707-70.304-.603-3.621-.905-6.939-1.81-10.259 0-.905-.604-1.81-.604-2.716v-47.975c0-.905.604-1.81.604-2.111.603-3.018 1.207-6.639 1.81-10.259 1.207-15.388 5.129-32.285 12.069-52.5 10.258-30.173 24.742-57.933 45.561-84.484 14.785-19.009 31.984-36.208 51.898-50.992 19.008-14.785 40.13-26.553 62.458-35.303 26.25-10.862 48.578-16.595 70.302-18.708 3.622-.604 6.94-.905 10.259-1.81.905 0 1.811-.604 2.715-.604l47.071-.301M234.607 246.362c4.526 0 9.354-1.207 13.578-3.621 30.475-15.086 63.364-26.552 97.761-34.096 21.725-4.828 44.053-7.542 65.777-7.844h5.129c10.26 0 21.725.905 35.906 2.111 14.785 1.811 30.173 3.621 44.655 6.94 34.097 7.844 63.968 19.008 91.424 32.586 5.131 2.715 10.863 3.923 15.389 3.923 5.13 0 12.673-1.208 19.914-8.75 10.863-10.863 12.372-21.726 5.131-35.906-12.07-24.44-28.665-46.467-50.993-66.984-13.275-12.372-28.664-23.536-45.26-32.587-35.303-19.914-73.924-29.569-114.355-30.172h-1.811c-3.621.603-6.939.603-10.259.905-7.543.905-15.388 1.207-23.534 2.112-20.82 2.112-41.036 8.448-61.554 17.802-30.474 14.182-55.519 31.983-75.734 54.312-16.595 17.802-28.664 35.303-38.319 54.311-5.732 11.466-3.922 24.44 5.129 34.397 7.242 7.543 14.484 10.561 22.026 10.561m184.66 136.381c41.639 0 74.226-32.586 75.433-74.828v-.905c-.905-41.639-33.19-74.226-74.226-74.829h-.905c-41.035 0-74.829 33.793-75.432 74.829 0 41.036 33.19 75.433 74.226 75.433l.904.3m56.121 152.677c3.019 0 6.337-.604 9.656-1.812 44.656-15.086 82.372-39.526 111.037-73.621 22.328-25.647 38.319-54.916 48.577-86.295 3.923-12.069 0-19.915-2.715-23.535-2.716-3.621-8.449-9.354-20.518-9.354h-1.811c-10.862.604-22.328 1.81-32.284 3.621-30.777 5.129-58.838 19.914-83.278 42.845-14.784 13.578-26.25 30.174-35.906 50.39-9.353 19.008-14.784 40.733-15.991 66.381v1.206c.604 26.855 16.293 30.174 23.233 30.174m-112.846-.302c6.638 0 12.069-2.112 16.595-6.639 3.017-3.018 6.939-8.75 6.939-18.707 0-3.018-.604-5.732-.604-8.449 0-1.81-.603-3.017-.603-4.525-.905-19.914-5.733-39.526-15.388-59.742-13.579-29.269-34.397-52.501-61.553-69.7-23.836-15.086-50.389-22.931-81.467-24.44h-9.354c-8.449.604-15.388 3.923-19.914 10.26-3.923 5.732-4.828 13.276-2.716 20.818 3.621 10.26 7.543 22.328 12.371 33.794 12.673 28.363 30.475 52.2 52.199 72.114 8.449 7.543 16.595 14.784 25.647 21.12 20.518 14.785 42.846 25.045 68.191 32.286 3.924 1.206 6.941 1.81 9.657 1.81"/></svg>